<svg width="32" height="32" viewBox="0 0 32 32" fill="none" xmlns="http://www.w3.org/2000/svg">
<rect x="4" y="9" width="24" height="6" fill="#FF0000"/>
<rect x="4" y="11" width="15" height="6" fill="#FF0000"/>
<rect x="13" y="11" width="15" height="6" fill="#FF0000"/>
<rect x="11" y="13" width="15" height="6" fill="#FF0000"/>
<rect x="6" y="13" width="15" height="6" fill="#FF0000"/>
<rect x="8" y="15" width="16" height="6" fill="#FF0000"/>
<rect x="10" y="17" width="12" height="6" fill="#FF0000"/>
<rect x="12" y="23" width="8" height="2" fill="#FF0000"/>
<rect x="14" y="25" width="4" height="2" fill="#FF0000"/>
<path d="M27.875 7.12502C26.5164 5.76984 24.6765 5.00775 22.7576 5.00541C20.8387 5.00307 18.9969 5.76066 17.635 7.11252L16 8.63127L14.3638 7.10752C13.0022 5.74978 11.157 4.98852 9.23421 4.99122C7.31138 4.99391 5.46837 5.76034 4.11063 7.1219C2.75288 8.48345 1.99163 10.3286 1.99432 12.2514C1.99702 14.1743 2.76345 16.0173 4.125 17.375L15.2938 28.7075C15.3868 28.802 15.4977 28.877 15.62 28.9283C15.7424 28.9795 15.8736 29.0058 16.0063 29.0058C16.1389 29.0058 16.2701 28.9795 16.3925 28.9283C16.5148 28.877 16.6257 28.802 16.7188 28.7075L27.875 17.375C29.2337 16.0155 29.997 14.1721 29.997 12.25C29.997 10.3279 29.2337 8.48454 27.875 7.12502ZM26.4563 15.97L16 26.575L5.5375 15.96C4.55289 14.9754 3.99973 13.64 3.99973 12.2475C3.99973 10.8551 4.55289 9.51964 5.5375 8.53502C6.52212 7.55041 7.85754 6.99725 9.25 6.99725C10.6425 6.99725 11.9779 7.55041 12.9625 8.53502L12.9875 8.56002L15.3188 10.7288C15.5038 10.901 15.7472 10.9967 16 10.9967C16.2528 10.9967 16.4962 10.901 16.6813 10.7288L19.0125 8.56002L19.0375 8.53502C20.0228 7.55107 21.3586 6.99882 22.751 6.99975C24.1435 7.00069 25.4785 7.55474 26.4625 8.54002C27.4465 9.5253 27.9987 10.8611 27.9978 12.2536C27.9968 13.646 27.4428 14.9811 26.4575 15.965L26.4563 15.97Z" fill="#FF0000"/>
<rect x="5" y="7" width="9" height="2" fill="#FF0000"/>
<rect x="5" y="7" width="9" height="2" fill="#FF0000"/>
<rect x="5" y="7" width="9" height="2" fill="#FF0000"/>
<rect x="18" y="7" width="9" height="2" fill="#FF0000"/>
<rect x="18" y="7" width="9" height="2" fill="#FF0000"/>
<rect x="18" y="7" width="9" height="2" fill="#FF0000"/>
</svg>
