<svg width="23" height="23" viewBox="0 0 23 23" fill="none" xmlns="http://www.w3.org/2000/svg">
<path d="M11.5 2.15625C9.02188 2.15625 6.64526 3.14068 4.89297 4.89297C3.14068 6.64526 2.15625 9.02188 2.15625 11.5C2.15625 13.9781 3.14068 16.3547 4.89297 18.107C6.64526 19.8593 9.02188 20.8438 11.5 20.8438C13.4325 20.8438 15.4621 20.2616 16.9293 19.2868C17.0079 19.2345 17.0755 19.1672 17.1281 19.0889C17.1808 19.0105 17.2175 18.9225 17.2361 18.8299C17.2548 18.7374 17.255 18.642 17.2368 18.5494C17.2186 18.4567 17.1823 18.3686 17.1301 18.2899C17.0778 18.2113 17.0105 18.1437 16.9322 18.0911C16.8538 18.0384 16.7658 18.0017 16.6732 17.9831C16.5807 17.9644 16.4853 17.9642 16.3927 17.9824C16.3 18.0006 16.2119 18.0369 16.1332 18.0891C14.9141 18.9013 13.1361 19.4062 11.5 19.4062C9.93629 19.4062 8.4077 18.9426 7.10752 18.0738C5.80735 17.2051 4.79398 15.9703 4.19558 14.5256C3.59717 13.0809 3.4406 11.4912 3.74567 9.95757C4.05073 8.4239 4.80373 7.01515 5.90944 5.90944C7.01515 4.80373 8.4239 4.05073 9.95757 3.74567C11.4912 3.4406 13.0809 3.59717 14.5256 4.19558C15.9703 4.79398 17.2051 5.80735 18.0738 7.10752C18.9426 8.4077 19.4062 9.93629 19.4062 11.5C19.4062 13.8764 18.4287 14.375 17.6094 14.375C16.79 14.375 15.8125 13.8764 15.8125 11.5V7.90625C15.8125 7.71563 15.7368 7.53281 15.602 7.39802C15.4672 7.26323 15.2844 7.1875 15.0938 7.1875C14.9031 7.1875 14.7203 7.26323 14.5855 7.39802C14.4507 7.53281 14.375 7.71563 14.375 7.90625V8.28898C13.73 7.71069 12.9258 7.34005 12.0671 7.22536C11.2084 7.11067 10.3351 7.25724 9.56096 7.64598C8.78679 8.03473 8.14764 8.64762 7.72678 9.40481C7.30592 10.162 7.12286 11.0284 7.20145 11.8911C7.28003 12.7538 7.61662 13.5729 8.16737 14.2416C8.71811 14.9103 9.45748 15.3976 10.2891 15.64C11.1208 15.8825 12.0062 15.8689 12.83 15.6009C13.6539 15.333 14.3779 14.8231 14.9078 14.1378C15.4468 15.2159 16.3767 15.8125 17.6094 15.8125C19.6345 15.8125 20.8438 14.2007 20.8438 11.5C20.8411 9.02269 19.8559 6.64759 18.1041 4.89586C16.3524 3.14413 13.9773 2.15887 11.5 2.15625ZM11.5 14.375C10.9314 14.375 10.3755 14.2064 9.90274 13.8905C9.42994 13.5746 9.06145 13.1256 8.84385 12.6002C8.62624 12.0749 8.56931 11.4968 8.68024 10.9391C8.79117 10.3814 9.06499 9.86914 9.46707 9.46707C9.86914 9.06499 10.3814 8.79117 10.9391 8.68024C11.4968 8.56931 12.0749 8.62624 12.6002 8.84385C13.1256 9.06145 13.5746 9.42994 13.8905 9.90274C14.2064 10.3755 14.375 10.9314 14.375 11.5C14.375 12.2625 14.0721 12.9938 13.5329 13.5329C12.9938 14.0721 12.2625 14.375 11.5 14.375Z" fill="#277FFE"/>
</svg>
