<svg width="23" height="23" viewBox="0 0 23 23" fill="none" xmlns="http://www.w3.org/2000/svg">
<path d="M4.3125 5.03125V17.9688C4.3125 18.1594 4.23677 18.3422 4.10198 18.477C3.96719 18.6118 3.78437 18.6875 3.59375 18.6875C3.40313 18.6875 3.22031 18.6118 3.08552 18.477C2.95073 18.3422 2.875 18.1594 2.875 17.9688V5.03125C2.875 4.84063 2.95073 4.65781 3.08552 4.52302C3.22031 4.38823 3.40313 4.3125 3.59375 4.3125C3.78437 4.3125 3.96719 4.38823 4.10198 4.52302C4.23677 4.65781 4.3125 4.84063 4.3125 5.03125ZM11.8594 9.92773L10.0625 10.5117V8.625C10.0625 8.43438 9.98677 8.25156 9.85198 8.11677C9.71719 7.98198 9.53437 7.90625 9.34375 7.90625C9.15313 7.90625 8.97031 7.98198 8.83552 8.11677C8.70073 8.25156 8.625 8.43438 8.625 8.625V10.5117L6.82812 9.92773C6.64679 9.86816 6.44923 9.88307 6.27888 9.96917C6.10854 10.0553 5.97937 10.2055 5.9198 10.3868C5.86023 10.5682 5.87514 10.7657 5.96124 10.9361C6.04733 11.1064 6.19757 11.2356 6.37891 11.2952L8.17578 11.8782L7.06711 13.4056C7.00852 13.4817 6.96579 13.5688 6.94143 13.6617C6.91708 13.7547 6.9116 13.8515 6.92532 13.9466C6.93903 14.0417 6.97167 14.133 7.0213 14.2153C7.07093 14.2975 7.13655 14.369 7.21427 14.4255C7.29199 14.4819 7.38024 14.5222 7.4738 14.544C7.56737 14.5658 7.66435 14.5686 7.75901 14.5522C7.85367 14.5359 7.9441 14.5007 8.02494 14.4488C8.10578 14.3969 8.1754 14.3294 8.22969 14.2501L9.33836 12.7228L10.447 14.2501C10.5013 14.3294 10.5709 14.3969 10.6518 14.4488C10.7326 14.5007 10.823 14.5359 10.9177 14.5522C11.0124 14.5686 11.1094 14.5658 11.2029 14.544C11.2965 14.5222 11.3847 14.4819 11.4624 14.4255C11.5402 14.369 11.6058 14.2975 11.6554 14.2153C11.705 14.133 11.7377 14.0417 11.7514 13.9466C11.7651 13.8515 11.7596 13.7547 11.7353 13.6617C11.7109 13.5688 11.6682 13.4817 11.6096 13.4056L10.5009 11.8782L12.2978 11.2952C12.4711 11.2307 12.6129 11.1019 12.6937 10.9356C12.7745 10.7692 12.7881 10.5781 12.7317 10.402C12.6752 10.226 12.553 10.0784 12.3906 9.99006C12.2281 9.90172 12.0379 9.8794 11.8594 9.92773ZM21.3828 10.3895C21.3239 10.2099 21.1966 10.0606 21.0284 9.97418C20.8602 9.88774 20.6648 9.87105 20.4844 9.92773L18.6875 10.5117V8.625C18.6875 8.43438 18.6118 8.25156 18.477 8.11677C18.3422 7.98198 18.1594 7.90625 17.9688 7.90625C17.7781 7.90625 17.5953 7.98198 17.4605 8.11677C17.3257 8.25156 17.25 8.43438 17.25 8.625V10.5117L15.4531 9.92863C15.3633 9.89943 15.2687 9.8882 15.1746 9.89558C15.0804 9.90296 14.9887 9.92881 14.9045 9.97165C14.8204 10.0145 14.7455 10.0735 14.6842 10.1453C14.6229 10.217 14.5763 10.3002 14.5471 10.39C14.5178 10.4798 14.5066 10.5744 14.514 10.6686C14.5214 10.7627 14.5472 10.8544 14.5901 10.9386C14.6329 11.0227 14.6919 11.0976 14.7637 11.1589C14.8355 11.2203 14.9186 11.2669 15.0084 11.2961L16.8053 11.8791L15.6966 13.4065C15.638 13.4826 15.5953 13.5697 15.5709 13.6626C15.5466 13.7556 15.5411 13.8524 15.5548 13.9475C15.5685 14.0426 15.6012 14.1339 15.6508 14.2162C15.7004 14.2984 15.766 14.3699 15.8438 14.4264C15.9215 14.4828 16.0097 14.5231 16.1033 14.5449C16.1969 14.5667 16.2938 14.5695 16.3885 14.5531C16.4832 14.5368 16.5736 14.5016 16.6544 14.4497C16.7353 14.3978 16.8049 14.3303 16.8592 14.251L17.9679 12.7237L19.0765 14.251C19.1308 14.3303 19.2004 14.3978 19.2813 14.4497C19.3621 14.5016 19.4525 14.5368 19.5472 14.5531C19.6419 14.5695 19.7388 14.5667 19.8324 14.5449C19.926 14.5231 20.0142 14.4828 20.0919 14.4264C20.1697 14.3699 20.2353 14.2984 20.2849 14.2162C20.3345 14.1339 20.3672 14.0426 20.3809 13.9475C20.3946 13.8524 20.3891 13.7556 20.3648 13.6626C20.3404 13.5697 20.2977 13.4826 20.2391 13.4065L19.1304 11.8791L20.9273 11.2961C21.1077 11.2359 21.2569 11.1068 21.3423 10.9369C21.4277 10.767 21.4422 10.5702 21.3828 10.3895Z" fill="#277FFE"/>
</svg>
