<svg width="23" height="23" viewBox="0 0 23 23" fill="none" xmlns="http://www.w3.org/2000/svg">
<path d="M20.7467 19.0469C19.3784 16.6813 17.2698 14.985 14.809 14.1809C16.0262 13.4563 16.9719 12.3522 17.5009 11.038C18.0298 9.72389 18.1128 8.27246 17.737 6.90661C17.3612 5.54077 16.5475 4.33604 15.4208 3.47743C14.294 2.61882 12.9166 2.15381 11.5 2.15381C10.0834 2.15381 8.70599 2.61882 7.57926 3.47743C6.45252 4.33604 5.63878 5.54077 5.26301 6.90661C4.88723 8.27246 4.9702 9.72389 5.49916 11.038C6.02812 12.3522 6.97384 13.4563 8.19107 14.1809C5.73025 14.9841 3.62162 16.6804 2.2533 19.0469C2.20312 19.1287 2.16983 19.2197 2.15541 19.3146C2.14099 19.4095 2.14571 19.5063 2.16931 19.5994C2.19291 19.6924 2.23491 19.7798 2.29282 19.8563C2.35073 19.9328 2.42339 19.997 2.5065 20.045C2.58961 20.093 2.68149 20.1239 2.77673 20.1358C2.87197 20.1477 2.96863 20.1405 3.06101 20.1144C3.15339 20.0884 3.23962 20.0441 3.31461 19.9842C3.3896 19.9243 3.45183 19.85 3.49763 19.7656C5.19029 16.8403 8.18208 15.0938 11.5 15.0938C14.8179 15.0938 17.8097 16.8403 19.5024 19.7656C19.5482 19.85 19.6104 19.9243 19.6854 19.9842C19.7604 20.0441 19.8466 20.0884 19.939 20.1144C20.0314 20.1405 20.1281 20.1477 20.2233 20.1358C20.3185 20.1239 20.4104 20.093 20.4935 20.045C20.5766 19.997 20.6493 19.9328 20.7072 19.8563C20.7651 19.7798 20.8071 19.6924 20.8307 19.5994C20.8543 19.5063 20.859 19.4095 20.8446 19.3146C20.8302 19.2197 20.7969 19.1287 20.7467 19.0469ZM6.46876 8.625C6.46876 7.62992 6.76384 6.65717 7.31668 5.82979C7.86952 5.00241 8.6553 4.35754 9.57464 3.97673C10.494 3.59593 11.5056 3.49629 12.4816 3.69043C13.4575 3.88456 14.354 4.36374 15.0576 5.06737C15.7613 5.771 16.2405 6.66749 16.4346 7.64345C16.6287 8.61942 16.5291 9.63104 16.1483 10.5504C15.7675 11.4697 15.1226 12.2555 14.2952 12.8083C13.4678 13.3612 12.4951 13.6563 11.5 13.6563C10.1661 13.6548 8.88719 13.1243 7.94396 12.1811C7.00073 11.2378 6.47019 9.95893 6.46876 8.625Z" fill="#277FFE"/>
</svg>
